<svg xmlns="http://www.w3.org/2000/svg" viewBox="0 0 128 128" width="128" height="128" role="img" aria-label="Reading Buddy">
  <rect width="128" height="128" rx="30" fill="#3a7d44"/>
  <path d="M42 36 C37 24 39 14 43 12 C51 17 57 24 61 31 Z" fill="#fffbf0"/>
  <path d="M86 36 C91 24 89 14 85 12 C77 17 71 24 67 31 Z" fill="#fffbf0"/>
  <path d="M64 18 C85 18 99 36 99 60 C99 84 85 100 64 100 C43 100 29 84 29 60 C29 36 43 18 64 18 Z" fill="#fffbf0"/>
  <circle cx="50" cy="52" r="14" fill="#ffffff" stroke="#26502f" stroke-width="4"/>
  <circle cx="78" cy="52" r="14" fill="#ffffff" stroke="#26502f" stroke-width="4"/>
  <circle cx="52" cy="53" r="6.5" fill="#26502f"/>
  <circle cx="76" cy="53" r="6.5" fill="#26502f"/>
  <circle cx="54.4" cy="50" r="2.3" fill="#ffffff"/>
  <circle cx="78.4" cy="50" r="2.3" fill="#ffffff"/>
  <path d="M64 78 L56.5 67 L71.5 67 Z" fill="#f4a62a"/>
  <path d="M20 86 C36 80 52 82 64 90 C76 82 92 80 108 86 L108 106 C92 100 76 102 64 110 C52 102 36 100 20 106 Z" fill="#f4a62a" stroke="#26502f" stroke-width="4.5" stroke-linejoin="round"/>
  <path d="M25 91 C38 87 53 88 64 95 C75 88 90 87 103 91 L103 101 C90 97 75 98 64 105 C53 98 38 97 25 101 Z" fill="#fffbf0"/>
  <path d="M64 90 L64 110" stroke="#26502f" stroke-width="4.5" stroke-linecap="round"/>
</svg>
